<svg width="156" height="52" viewBox="0 0 156 52" fill="none" xmlns="http://www.w3.org/2000/svg">
<path d="M17.32 40.06C15.96 40.06 14.72 39.82 13.6 39.34C12.48 38.86 11.6 38.1667 10.96 37.26C10.32 36.3533 10 35.2467 10 33.94C10 32.6067 10.32 31.5133 10.96 30.66C11.6 29.78 12.48 29.1267 13.6 28.7C14.72 28.2467 15.9733 28.02 17.36 28.02H23.96V26.58C23.96 25.1933 23.5467 24.1 22.72 23.3C21.92 22.5 20.72 22.1 19.12 22.1C17.5467 22.1 16.32 22.4867 15.44 23.26C14.56 24.0067 13.96 25.02 13.64 26.3L10.68 25.34C11 24.2467 11.5067 23.26 12.2 22.38C12.8933 21.4733 13.8133 20.7533 14.96 20.22C16.1333 19.66 17.5333 19.38 19.16 19.38C21.6667 19.38 23.6133 20.0333 25 21.34C26.3867 22.62 27.08 24.4333 27.08 26.78V35.62C27.08 36.42 27.4533 36.82 28.2 36.82H30V39.5H27.24C26.36 39.5 25.6533 39.26 25.12 38.78C24.5867 38.2733 24.32 37.6067 24.32 36.78V36.58H23.84C23.5467 37.0867 23.1467 37.62 22.64 38.18C22.16 38.7133 21.4933 39.1533 20.64 39.5C19.7867 39.8733 18.68 40.06 17.32 40.06ZM17.68 37.34C19.5467 37.34 21.0533 36.7933 22.2 35.7C23.3733 34.58 23.96 33.02 23.96 31.02V30.58H17.48C16.2267 30.58 15.1867 30.86 14.36 31.42C13.56 31.9533 13.16 32.7667 13.16 33.86C13.16 34.9533 13.5733 35.8067 14.4 36.42C15.2533 37.0333 16.3467 37.34 17.68 37.34ZM33.4478 39.5V35.42L45.8878 23.14V22.7H33.8478V19.94H49.2078V24.02L36.7278 36.3V36.78H49.5278V39.5H33.4478ZM53.7472 39.5V36.5H57.6672V14.5H53.7472V11.5H67.7872C69.4139 11.5 70.8539 11.7933 72.1072 12.38C73.3872 12.9667 74.3739 13.7933 75.0672 14.86C75.7872 15.9 76.1472 17.1267 76.1472 18.54V18.86C76.1472 20.1667 75.8939 21.2467 75.3872 22.1C74.8805 22.9267 74.2805 23.58 73.5872 24.06C72.8939 24.5133 72.2139 24.8467 71.5472 25.06V25.62C72.2139 25.78 72.9072 26.1 73.6272 26.58C74.3472 27.0333 74.9472 27.6867 75.4272 28.54C75.9339 29.3933 76.1872 30.4733 76.1872 31.78V32.18C76.1872 33.7 75.8139 35.02 75.0672 36.14C74.3472 37.2333 73.3472 38.0733 72.0672 38.66C70.8139 39.22 69.3739 39.5 67.7472 39.5H53.7472ZM61.0272 36.46H67.3872C69.1472 36.46 70.4939 36.0467 71.4272 35.22C72.3605 34.3933 72.8272 33.2733 72.8272 31.86V31.5C72.8272 30.0867 72.3605 28.9667 71.4272 28.14C70.4939 27.3133 69.1472 26.9 67.3872 26.9H61.0272V36.46ZM61.0272 23.86H67.5072C69.1072 23.86 70.3872 23.46 71.3472 22.66C72.3072 21.8333 72.7872 20.7533 72.7872 19.42V19.02C72.7872 17.66 72.3072 16.58 71.3472 15.78C70.4139 14.9533 69.1339 14.54 67.5072 14.54H61.0272V23.86ZM81.5125 39.5V11.5H98.7525V14.54H84.8725V23.9H97.6325V26.94H84.8725V36.46H98.9525V39.5H81.5125ZM113.372 40.06C111.345 40.06 109.532 39.7 107.932 38.98C106.332 38.26 105.065 37.18 104.132 35.74C103.225 34.2733 102.772 32.4467 102.772 30.26V29.42H106.092V30.26C106.092 32.58 106.772 34.3133 108.132 35.46C109.492 36.58 111.238 37.14 113.372 37.14C115.558 37.14 117.225 36.6467 118.372 35.66C119.518 34.6733 120.092 33.4333 120.092 31.94C120.092 30.9 119.825 30.0733 119.292 29.46C118.785 28.8467 118.065 28.3533 117.132 27.98C116.198 27.58 115.105 27.2333 113.852 26.94L111.772 26.42C110.145 25.9933 108.705 25.4733 107.452 24.86C106.198 24.2467 105.212 23.4467 104.492 22.46C103.798 21.4467 103.452 20.1533 103.452 18.58C103.452 17.0067 103.838 15.6467 104.612 14.5C105.412 13.3533 106.518 12.4733 107.932 11.86C109.372 11.2467 111.025 10.94 112.892 10.94C114.785 10.94 116.478 11.2733 117.972 11.94C119.492 12.58 120.678 13.54 121.532 14.82C122.412 16.0733 122.852 17.66 122.852 19.58V21.26H119.532V19.58C119.532 18.22 119.238 17.1267 118.652 16.3C118.092 15.4733 117.305 14.86 116.292 14.46C115.305 14.06 114.172 13.86 112.892 13.86C111.052 13.86 109.572 14.2733 108.452 15.1C107.332 15.9 106.772 17.0467 106.772 18.54C106.772 19.5267 107.012 20.3267 107.492 20.94C107.972 21.5533 108.652 22.06 109.532 22.46C110.412 22.8333 111.465 23.1667 112.692 23.46L114.772 23.98C116.398 24.3267 117.852 24.8067 119.132 25.42C120.438 26.0067 121.478 26.82 122.252 27.86C123.025 28.8733 123.412 30.2067 123.412 31.86C123.412 33.5133 122.998 34.9533 122.172 36.18C121.345 37.4067 120.172 38.3667 118.652 39.06C117.158 39.7267 115.398 40.06 113.372 40.06ZM134.252 39.5V14.54H125.252V11.5H146.612V14.54H137.612V39.5H134.252Z" fill="#6AA94D"/>
<path d="M13.2738 48.39C12.7671 48.39 12.3138 48.3 11.9138 48.12C11.5138 47.94 11.1971 47.67 10.9638 47.31C10.7371 46.9433 10.6238 46.4867 10.6238 45.94V45.73H11.4538V45.94C11.4538 46.52 11.6238 46.9533 11.9638 47.24C12.3038 47.52 12.7404 47.66 13.2738 47.66C13.8204 47.66 14.2371 47.5367 14.5238 47.29C14.8104 47.0433 14.9538 46.7333 14.9538 46.36C14.9538 46.1 14.8871 45.8933 14.7538 45.74C14.6271 45.5867 14.4471 45.4633 14.2138 45.37C13.9804 45.27 13.7071 45.1833 13.3938 45.11L12.8738 44.98C12.4671 44.8733 12.1071 44.7433 11.7938 44.59C11.4804 44.4367 11.2338 44.2367 11.0538 43.99C10.8804 43.7367 10.7938 43.4133 10.7938 43.02C10.7938 42.6267 10.8904 42.2867 11.0838 42C11.2838 41.7133 11.5604 41.4933 11.9138 41.34C12.2738 41.1867 12.6871 41.11 13.1538 41.11C13.6271 41.11 14.0504 41.1933 14.4238 41.36C14.8038 41.52 15.1004 41.76 15.3138 42.08C15.5338 42.3933 15.6438 42.79 15.6438 43.27V43.69H14.8138V43.27C14.8138 42.93 14.7404 42.6567 14.5938 42.45C14.4538 42.2433 14.2571 42.09 14.0038 41.99C13.7571 41.89 13.4738 41.84 13.1538 41.84C12.6938 41.84 12.3238 41.9433 12.0438 42.15C11.7638 42.35 11.6238 42.6367 11.6238 43.01C11.6238 43.2567 11.6838 43.4567 11.8038 43.61C11.9238 43.7633 12.0938 43.89 12.3138 43.99C12.5338 44.0833 12.7971 44.1667 13.1038 44.24L13.6238 44.37C14.0304 44.4567 14.3938 44.5767 14.7138 44.73C15.0404 44.8767 15.3004 45.08 15.4938 45.34C15.6871 45.5933 15.7838 45.9267 15.7838 46.34C15.7838 46.7533 15.6804 47.1133 15.4738 47.42C15.2671 47.7267 14.9738 47.9667 14.5938 48.14C14.2204 48.3067 13.7804 48.39 13.2738 48.39ZM17.5066 48.25V41.25H18.2966V45.37H18.4366L20.6766 43.36H21.7766L19.0666 45.74L21.8566 48.25H20.7666L18.4366 46.12H18.2966V48.25H17.5066ZM23.2874 48.25V41.25H24.0774V48.25H23.2874ZM28.3786 48.39C27.8853 48.39 27.4519 48.2867 27.0786 48.08C26.7053 47.8667 26.4153 47.57 26.2086 47.19C26.0019 46.81 25.8986 46.37 25.8986 45.87V45.75C25.8986 45.2433 26.0019 44.8 26.2086 44.42C26.4153 44.04 26.7019 43.7467 27.0686 43.54C27.4353 43.3267 27.8553 43.22 28.3286 43.22C28.7886 43.22 29.1953 43.32 29.5486 43.52C29.9019 43.7133 30.1786 43.9933 30.3786 44.36C30.5786 44.7267 30.6786 45.1567 30.6786 45.65V46.01H26.6886C26.7086 46.5367 26.8786 46.95 27.1986 47.25C27.5186 47.5433 27.9186 47.69 28.3986 47.69C28.8186 47.69 29.1419 47.5933 29.3686 47.4C29.5953 47.2067 29.7686 46.9767 29.8886 46.71L30.5686 47.04C30.4686 47.2467 30.3286 47.4533 30.1486 47.66C29.9753 47.8667 29.7453 48.04 29.4586 48.18C29.1786 48.32 28.8186 48.39 28.3786 48.39ZM26.6986 45.36H29.8786C29.8519 44.9067 29.6953 44.5533 29.4086 44.3C29.1286 44.0467 28.7686 43.92 28.3286 43.92C27.8819 43.92 27.5153 44.0467 27.2286 44.3C26.9419 44.5533 26.7653 44.9067 26.6986 45.36ZM32.4566 50.25V43.36H33.2266V44.17H33.3666C33.4932 43.9233 33.6966 43.7033 33.9766 43.51C34.2632 43.3167 34.6599 43.22 35.1666 43.22C35.5866 43.22 35.9699 43.3233 36.3166 43.53C36.6699 43.73 36.9499 44.0167 37.1566 44.39C37.3699 44.7633 37.4766 45.2133 37.4766 45.74V45.87C37.4766 46.39 37.3732 46.84 37.1666 47.22C36.9599 47.6 36.6799 47.89 36.3266 48.09C35.9799 48.29 35.5932 48.39 35.1666 48.39C34.8266 48.39 34.5366 48.3433 34.2966 48.25C34.0632 48.1633 33.8732 48.05 33.7266 47.91C33.5799 47.77 33.4666 47.6267 33.3866 47.48H33.2466V50.25H32.4566ZM34.9566 47.69C35.4632 47.69 35.8732 47.53 36.1866 47.21C36.5066 46.8833 36.6666 46.43 36.6666 45.85V45.76C36.6666 45.18 36.5066 44.73 36.1866 44.41C35.8732 44.0833 35.4632 43.92 34.9566 43.92C34.4566 43.92 34.0432 44.0833 33.7166 44.41C33.3966 44.73 33.2366 45.18 33.2366 45.76V45.85C33.2366 46.43 33.3966 46.8833 33.7166 47.21C34.0432 47.53 34.4566 47.69 34.9566 47.69ZM42.2605 48.25V43.36H43.0505V48.25H42.2605ZM42.6605 42.6C42.4871 42.6 42.3405 42.5433 42.2205 42.43C42.1071 42.3167 42.0505 42.1733 42.0505 42C42.0505 41.82 42.1071 41.6733 42.2205 41.56C42.3405 41.4467 42.4871 41.39 42.6605 41.39C42.8338 41.39 42.9771 41.4467 43.0905 41.56C43.2038 41.6733 43.2605 41.82 43.2605 42C43.2605 42.1733 43.2038 42.3167 43.0905 42.43C42.9771 42.5433 42.8338 42.6 42.6605 42.6ZM49.95 48.34C49.5967 48.34 49.27 48.2633 48.97 48.11C48.6767 47.9567 48.4433 47.73 48.27 47.43C48.1033 47.1233 48.02 46.7533 48.02 46.32V43.36H48.81V46.26C48.81 46.7467 48.93 47.1 49.17 47.32C49.4167 47.54 49.7467 47.65 50.16 47.65C50.6267 47.65 51.01 47.4967 51.31 47.19C51.61 46.8833 51.76 46.4267 51.76 45.82V43.36H52.55V48.25H51.78V47.42H51.64C51.5333 47.6533 51.35 47.8667 51.09 48.06C50.83 48.2467 50.45 48.34 49.95 48.34ZM56.573 48.39C55.9664 48.39 55.453 48.25 55.033 47.97C54.6197 47.69 54.3697 47.2467 54.283 46.64L55.033 46.47C55.0864 46.79 55.1864 47.0433 55.333 47.23C55.4797 47.41 55.6597 47.54 55.873 47.62C56.093 47.6933 56.3264 47.73 56.573 47.73C56.9397 47.73 57.2297 47.6567 57.443 47.51C57.6564 47.3633 57.763 47.1667 57.763 46.92C57.763 46.6667 57.6597 46.49 57.453 46.39C57.253 46.2833 56.9764 46.1967 56.623 46.13L56.213 46.06C55.8997 46.0067 55.613 45.9233 55.353 45.81C55.093 45.6967 54.8864 45.5433 54.733 45.35C54.5797 45.1567 54.503 44.9133 54.503 44.62C54.503 44.18 54.673 43.8367 55.013 43.59C55.353 43.3433 55.803 43.22 56.363 43.22C56.9164 43.22 57.363 43.3467 57.703 43.6C58.0497 43.8467 58.273 44.1967 58.373 44.65L57.633 44.84C57.573 44.4867 57.4297 44.24 57.203 44.1C56.9764 43.9533 56.6964 43.88 56.363 43.88C56.0297 43.88 55.7664 43.9433 55.573 44.07C55.3797 44.19 55.283 44.37 55.283 44.61C55.283 44.8433 55.373 45.0167 55.553 45.13C55.7397 45.2367 55.9864 45.3167 56.293 45.37L56.703 45.44C57.0497 45.5 57.3597 45.5833 57.633 45.69C57.913 45.79 58.133 45.9367 58.293 46.13C58.4597 46.3233 58.543 46.5767 58.543 46.89C58.543 47.37 58.363 47.74 58.003 48C57.6497 48.26 57.173 48.39 56.573 48.39ZM59.9565 46.26L59.6965 45.75L62.6265 44.22L62.8865 44.73L59.9565 46.26ZM60.8965 48.25V41.25H61.6865V48.25H60.8965ZM66.2379 48.34C65.8846 48.34 65.5579 48.2633 65.2579 48.11C64.9646 47.9567 64.7312 47.73 64.5579 47.43C64.3912 47.1233 64.3079 46.7533 64.3079 46.32V43.36H65.0979V46.26C65.0979 46.7467 65.2179 47.1 65.4579 47.32C65.7046 47.54 66.0346 47.65 66.4479 47.65C66.9146 47.65 67.2979 47.4967 67.5979 47.19C67.8979 46.8833 68.0479 46.4267 68.0479 45.82V43.36H68.8379V48.25H68.0679V47.42H67.9279C67.8212 47.6533 67.6379 47.8667 67.3779 48.06C67.1179 48.2467 66.7379 48.34 66.2379 48.34ZM70.6509 45.83V45.69C70.6509 45.1767 70.7543 44.7367 70.9609 44.37C71.1676 44.0033 71.4476 43.72 71.8009 43.52C72.1543 43.32 72.5409 43.22 72.9609 43.22C73.4743 43.22 73.8676 43.32 74.1409 43.52C74.4209 43.7133 74.6276 43.93 74.7609 44.17H74.9009V43.36H75.6509V49.39C75.6509 49.6567 75.5776 49.8667 75.4309 50.02C75.2843 50.1733 75.0709 50.25 74.7909 50.25H71.4709V49.55H74.5809C74.7809 49.55 74.8809 49.45 74.8809 49.25V47.39H74.7409C74.6609 47.5367 74.5476 47.68 74.4009 47.82C74.2543 47.96 74.0643 48.0767 73.8309 48.17C73.5976 48.2567 73.3076 48.3 72.9609 48.3C72.5409 48.3 72.1543 48.2 71.8009 48C71.4476 47.8 71.1676 47.5167 70.9609 47.15C70.7543 46.7767 70.6509 46.3367 70.6509 45.83ZM73.1709 47.6C73.6776 47.6 74.0876 47.44 74.4009 47.12C74.7209 46.8 74.8809 46.36 74.8809 45.8V45.72C74.8809 45.1533 74.7209 44.7133 74.4009 44.4C74.0876 44.08 73.6776 43.92 73.1709 43.92C72.6709 43.92 72.2576 44.08 71.9309 44.4C71.6109 44.7133 71.4509 45.1533 71.4509 45.72V45.8C71.4509 46.36 71.6109 46.8 71.9309 47.12C72.2576 47.44 72.6709 47.6 73.1709 47.6ZM77.707 48.25V43.36H78.497V48.25H77.707ZM78.107 42.6C77.9336 42.6 77.787 42.5433 77.667 42.43C77.5536 42.3167 77.497 42.1733 77.497 42C77.497 41.82 77.5536 41.6733 77.667 41.56C77.787 41.4467 77.9336 41.39 78.107 41.39C78.2803 41.39 78.4236 41.4467 78.537 41.56C78.6503 41.6733 78.707 41.82 78.707 42C78.707 42.1733 78.6503 42.3167 78.537 42.43C78.4236 42.5433 78.2803 42.6 78.107 42.6ZM83.5265 48.25V43.36H84.3165V48.25H83.5265ZM83.9265 42.6C83.7532 42.6 83.6065 42.5433 83.4865 42.43C83.3732 42.3167 83.3165 42.1733 83.3165 42C83.3165 41.82 83.3732 41.6733 83.4865 41.56C83.6065 41.4467 83.7532 41.39 83.9265 41.39C84.0998 41.39 84.2432 41.4467 84.3565 41.56C84.4698 41.6733 84.5265 41.82 84.5265 42C84.5265 42.1733 84.4698 42.3167 84.3565 42.43C84.2432 42.5433 84.0998 42.6 83.9265 42.6ZM86.3777 48.25V43.36H87.1477V44.19H87.2877C87.3943 43.9567 87.5743 43.7467 87.8277 43.56C88.0877 43.3667 88.4677 43.27 88.9677 43.27C89.3343 43.27 89.661 43.3467 89.9477 43.5C90.241 43.6533 90.4743 43.88 90.6477 44.18C90.821 44.48 90.9077 44.85 90.9077 45.29V48.25H90.1177V45.35C90.1177 44.8633 89.9943 44.51 89.7477 44.29C89.5077 44.07 89.181 43.96 88.7677 43.96C88.2943 43.96 87.9077 44.1133 87.6077 44.42C87.3143 44.7267 87.1677 45.1833 87.1677 45.79V48.25H86.3777ZM94.8805 48.39C94.2738 48.39 93.7605 48.25 93.3405 47.97C92.9271 47.69 92.6771 47.2467 92.5905 46.64L93.3405 46.47C93.3938 46.79 93.4938 47.0433 93.6405 47.23C93.7871 47.41 93.9671 47.54 94.1805 47.62C94.4005 47.6933 94.6338 47.73 94.8805 47.73C95.2471 47.73 95.5371 47.6567 95.7505 47.51C95.9638 47.3633 96.0705 47.1667 96.0705 46.92C96.0705 46.6667 95.9671 46.49 95.7605 46.39C95.5605 46.2833 95.2838 46.1967 94.9305 46.13L94.5205 46.06C94.2071 46.0067 93.9205 45.9233 93.6605 45.81C93.4005 45.6967 93.1938 45.5433 93.0405 45.35C92.8871 45.1567 92.8105 44.9133 92.8105 44.62C92.8105 44.18 92.9805 43.8367 93.3205 43.59C93.6605 43.3433 94.1105 43.22 94.6705 43.22C95.2238 43.22 95.6705 43.3467 96.0105 43.6C96.3571 43.8467 96.5805 44.1967 96.6805 44.65L95.9405 44.84C95.8805 44.4867 95.7371 44.24 95.5105 44.1C95.2838 43.9533 95.0038 43.88 94.6705 43.88C94.3371 43.88 94.0738 43.9433 93.8805 44.07C93.6871 44.19 93.5905 44.37 93.5905 44.61C93.5905 44.8433 93.6805 45.0167 93.8605 45.13C94.0471 45.2367 94.2938 45.3167 94.6005 45.37L95.0105 45.44C95.3571 45.5 95.6671 45.5833 95.9405 45.69C96.2205 45.79 96.4405 45.9367 96.6005 46.13C96.7671 46.3233 96.8505 46.5767 96.8505 46.89C96.8505 47.37 96.6705 47.74 96.3105 48C95.9571 48.26 95.4805 48.39 94.8805 48.39ZM100.276 48.25C99.9965 48.25 99.7798 48.1733 99.6265 48.02C99.4798 47.8667 99.4065 47.6567 99.4065 47.39V44.05H97.9365V43.36H99.4065V41.62H100.196V43.36H101.796V44.05H100.196V47.27C100.196 47.47 100.293 47.57 100.486 47.57H101.576V48.25H100.276ZM104.947 48.39C104.607 48.39 104.297 48.33 104.017 48.21C103.737 48.09 103.517 47.9167 103.357 47.69C103.197 47.4633 103.117 47.1867 103.117 46.86C103.117 46.5267 103.197 46.2533 103.357 46.04C103.517 45.82 103.737 45.6567 104.017 45.55C104.297 45.4367 104.61 45.38 104.957 45.38H106.607V45.02C106.607 44.6733 106.503 44.4 106.297 44.2C106.097 44 105.797 43.9 105.397 43.9C105.003 43.9 104.697 43.9967 104.477 44.19C104.257 44.3767 104.107 44.63 104.027 44.95L103.287 44.71C103.367 44.4367 103.493 44.19 103.667 43.97C103.84 43.7433 104.07 43.5633 104.357 43.43C104.65 43.29 105 43.22 105.407 43.22C106.033 43.22 106.52 43.3833 106.867 43.71C107.213 44.03 107.387 44.4833 107.387 45.07V47.28C107.387 47.48 107.48 47.58 107.667 47.58H108.117V48.25H107.427C107.207 48.25 107.03 48.19 106.897 48.07C106.763 47.9433 106.697 47.7767 106.697 47.57V47.52H106.577C106.503 47.6467 106.403 47.78 106.277 47.92C106.157 48.0533 105.99 48.1633 105.777 48.25C105.563 48.3433 105.287 48.39 104.947 48.39ZM105.037 47.71C105.503 47.71 105.88 47.5733 106.167 47.3C106.46 47.02 106.607 46.63 106.607 46.13V46.02H104.987C104.673 46.02 104.413 46.09 104.207 46.23C104.007 46.3633 103.907 46.5667 103.907 46.84C103.907 47.1133 104.01 47.3267 104.217 47.48C104.43 47.6333 104.703 47.71 105.037 47.71ZM109.599 48.25V41.25H110.389V48.25H109.599ZM113.95 48.39C113.61 48.39 113.3 48.33 113.02 48.21C112.74 48.09 112.52 47.9167 112.36 47.69C112.2 47.4633 112.12 47.1867 112.12 46.86C112.12 46.5267 112.2 46.2533 112.36 46.04C112.52 45.82 112.74 45.6567 113.02 45.55C113.3 45.4367 113.613 45.38 113.96 45.38H115.61V45.02C115.61 44.6733 115.507 44.4 115.3 44.2C115.1 44 114.8 43.9 114.4 43.9C114.007 43.9 113.7 43.9967 113.48 44.19C113.26 44.3767 113.11 44.63 113.03 44.95L112.29 44.71C112.37 44.4367 112.497 44.19 112.67 43.97C112.843 43.7433 113.073 43.5633 113.36 43.43C113.653 43.29 114.003 43.22 114.41 43.22C115.037 43.22 115.523 43.3833 115.87 43.71C116.217 44.03 116.39 44.4833 116.39 45.07V47.28C116.39 47.48 116.483 47.58 116.67 47.58H117.12V48.25H116.43C116.21 48.25 116.033 48.19 115.9 48.07C115.767 47.9433 115.7 47.7767 115.7 47.57V47.52H115.58C115.507 47.6467 115.407 47.78 115.28 47.92C115.16 48.0533 114.993 48.1633 114.78 48.25C114.567 48.3433 114.29 48.39 113.95 48.39ZM114.04 47.71C114.507 47.71 114.883 47.5733 115.17 47.3C115.463 47.02 115.61 46.63 115.61 46.13V46.02H113.99C113.677 46.02 113.417 46.09 113.21 46.23C113.01 46.3633 112.91 46.5667 112.91 46.84C112.91 47.1133 113.013 47.3267 113.22 47.48C113.433 47.6333 113.707 47.71 114.04 47.71ZM120.715 48.39C120.242 48.39 119.815 48.29 119.435 48.09C119.062 47.8833 118.765 47.59 118.545 47.21C118.332 46.83 118.225 46.38 118.225 45.86V45.75C118.225 45.2233 118.332 44.7733 118.545 44.4C118.765 44.02 119.062 43.73 119.435 43.53C119.815 43.3233 120.242 43.22 120.715 43.22C121.182 43.22 121.578 43.3067 121.905 43.48C122.238 43.6533 122.498 43.8833 122.685 44.17C122.878 44.4567 123.002 44.7633 123.055 45.09L122.285 45.25C122.252 45.01 122.172 44.79 122.045 44.59C121.925 44.39 121.755 44.23 121.535 44.11C121.315 43.99 121.045 43.93 120.725 43.93C120.398 43.93 120.105 44.0033 119.845 44.15C119.592 44.2967 119.388 44.5067 119.235 44.78C119.088 45.0533 119.015 45.38 119.015 45.76V45.85C119.015 46.23 119.088 46.5567 119.235 46.83C119.388 47.1033 119.592 47.3133 119.845 47.46C120.105 47.6067 120.398 47.68 120.725 47.68C121.212 47.68 121.582 47.5533 121.835 47.3C122.095 47.0467 122.255 46.7333 122.315 46.36L123.095 46.53C123.022 46.85 122.888 47.1533 122.695 47.44C122.502 47.7267 122.238 47.9567 121.905 48.13C121.578 48.3033 121.182 48.39 120.715 48.39ZM125.432 50.25V49.55H128.232C128.425 49.55 128.522 49.45 128.522 49.25V47.47H128.382C128.315 47.61 128.212 47.75 128.072 47.89C127.938 48.0233 127.762 48.1333 127.542 48.22C127.322 48.3 127.045 48.34 126.712 48.34C126.358 48.34 126.032 48.2633 125.732 48.11C125.438 47.9567 125.205 47.73 125.032 47.43C124.865 47.13 124.782 46.7633 124.782 46.33V43.36H125.572V46.27C125.572 46.75 125.692 47.1 125.932 47.32C126.178 47.54 126.508 47.65 126.922 47.65C127.388 47.65 127.772 47.4967 128.072 47.19C128.372 46.8833 128.522 46.4267 128.522 45.82V43.36H129.312V49.39C129.312 49.6567 129.235 49.8667 129.082 50.02C128.935 50.1733 128.718 50.25 128.432 50.25H125.432ZM130.405 50.25V49.55H131.085C131.285 49.55 131.385 49.45 131.385 49.25V43.36H132.175V49.39C132.175 49.6567 132.098 49.8667 131.945 50.02C131.798 50.1733 131.585 50.25 131.305 50.25H130.405ZM131.785 42.6C131.611 42.6 131.465 42.5433 131.345 42.43C131.231 42.3167 131.175 42.1733 131.175 42C131.175 41.82 131.231 41.6733 131.345 41.56C131.465 41.4467 131.611 41.39 131.785 41.39C131.958 41.39 132.101 41.4467 132.215 41.56C132.328 41.6733 132.385 41.82 132.385 42C132.385 42.1733 132.328 42.3167 132.215 42.43C132.101 42.5433 131.958 42.6 131.785 42.6ZM134.235 48.25V43.36H135.005V44.19H135.145C135.252 43.9567 135.432 43.7467 135.685 43.56C135.945 43.3667 136.325 43.27 136.825 43.27C137.192 43.27 137.519 43.3467 137.805 43.5C138.099 43.6533 138.332 43.88 138.505 44.18C138.679 44.48 138.765 44.85 138.765 45.29V48.25H137.975V45.35C137.975 44.8633 137.852 44.51 137.605 44.29C137.365 44.07 137.039 43.96 136.625 43.96C136.152 43.96 135.765 44.1133 135.465 44.42C135.172 44.7267 135.025 45.1833 135.025 45.79V48.25H134.235ZM143.008 48.39C142.515 48.39 142.082 48.2867 141.708 48.08C141.335 47.8667 141.045 47.57 140.838 47.19C140.632 46.81 140.528 46.37 140.528 45.87V45.75C140.528 45.2433 140.632 44.8 140.838 44.42C141.045 44.04 141.332 43.7467 141.698 43.54C142.065 43.3267 142.485 43.22 142.958 43.22C143.418 43.22 143.825 43.32 144.178 43.52C144.532 43.7133 144.808 43.9933 145.008 44.36C145.208 44.7267 145.308 45.1567 145.308 45.65V46.01H141.318C141.338 46.5367 141.508 46.95 141.828 47.25C142.148 47.5433 142.548 47.69 143.028 47.69C143.448 47.69 143.772 47.5933 143.998 47.4C144.225 47.2067 144.398 46.9767 144.518 46.71L145.198 47.04C145.098 47.2467 144.958 47.4533 144.778 47.66C144.605 47.8667 144.375 48.04 144.088 48.18C143.808 48.32 143.448 48.39 143.008 48.39ZM141.328 45.36H144.508C144.482 44.9067 144.325 44.5533 144.038 44.3C143.758 44.0467 143.398 43.92 142.958 43.92C142.512 43.92 142.145 44.0467 141.858 44.3C141.572 44.5533 141.395 44.9067 141.328 45.36Z" fill="#6AA94D"/>
</svg>
